<svg width="40" height="40" viewBox="0 0 40 40" fill="none" xmlns="http://www.w3.org/2000/svg">
<path fill-rule="evenodd" clip-rule="evenodd" d="M29.9183 25.9517C29.7713 27.276 29.3608 28.5575 28.7111 29.7207C28.0613 30.8839 27.1854 31.9054 26.1349 32.725C25.5539 34.1117 24.523 35.2624 23.2083 35.9917C23.0241 36.708 22.607 37.3426 22.0225 37.7958C21.4381 38.249 20.7195 38.495 19.9799 38.495C19.2404 38.495 18.5218 38.249 17.9373 37.7958C17.3529 37.3426 16.9357 36.708 16.7516 35.9917C15.4368 35.2624 14.4059 34.1117 13.8249 32.725C12.7779 31.9085 11.9042 30.8915 11.2549 29.7333C10.6056 28.5752 10.1937 27.2992 10.0433 25.98C9.06304 26.7191 7.84522 27.0719 6.62171 26.9713C5.39819 26.8706 4.25444 26.3234 3.40825 25.434C2.56206 24.5446 2.07253 23.375 2.03288 22.148C1.99324 20.921 2.40624 19.7222 3.19325 18.78L10.0166 10.65C10.2306 8.16003 11.3692 5.84041 13.2081 4.14804C15.0471 2.45567 17.4531 1.51322 19.9523 1.50632C22.4514 1.49943 24.8626 2.42857 26.7108 4.11076C28.5591 5.79295 29.7105 8.10625 29.9383 10.595L36.8049 18.7784C37.6002 19.7227 38.0179 20.9279 37.9777 22.1618C37.9375 23.3957 37.4422 24.5712 36.5872 25.4618C35.7322 26.3524 34.578 26.8951 33.3467 26.9856C32.1154 27.0761 30.8942 26.7078 29.9183 25.9517ZM26.0416 21.51L23.2449 18.1767H16.7549L13.9583 21.51H26.0416ZM29.9799 21.0167L31.6999 23.065C31.8407 23.2327 32.013 23.371 32.2072 23.472C32.4014 23.573 32.6136 23.6348 32.8316 23.6539C33.0497 23.6729 33.2694 23.6488 33.4781 23.583C33.6869 23.5171 33.8806 23.4108 34.0483 23.27C34.2159 23.1293 34.3542 22.9569 34.4552 22.7627C34.5563 22.5686 34.6181 22.3564 34.6371 22.1383C34.6561 21.9203 34.632 21.7006 34.5662 21.4918C34.5003 21.2831 34.394 21.0893 34.2533 20.9217L29.9799 15.83V21.0167ZM26.6466 14.8434V11.51C26.6466 9.74191 25.9442 8.04622 24.694 6.79598C23.4437 5.54574 21.748 4.84336 19.9799 4.84336C18.2118 4.84336 16.5161 5.54574 15.2659 6.79598C14.0156 8.04622 13.3133 9.74191 13.3133 11.51V14.8434H26.6466ZM8.29992 23.065L9.97825 21.065V15.8784L5.74492 20.9234C5.46092 21.2622 5.32314 21.6999 5.3619 22.1403C5.40065 22.5807 5.61277 22.9877 5.95159 23.2717C6.2904 23.5557 6.72816 23.6935 7.16855 23.6547C7.60895 23.616 8.01592 23.4038 8.29992 23.065ZM19.9783 31.51C18.2101 31.51 16.5145 30.8076 15.2642 29.5574C14.014 28.3072 13.3116 26.6115 13.3116 24.8434H26.6449C26.6449 26.6115 25.9425 28.3072 24.6923 29.5574C23.4421 30.8076 21.7464 31.51 19.9783 31.51Z" fill="black"/>
</svg>
