<svg width="40" height="40" viewBox="0 0 40 40" fill="none" xmlns="http://www.w3.org/2000/svg">
<path d="M28.1333 4.79998C27.9397 4.60597 27.7099 4.45204 27.4567 4.34702C27.2036 4.24199 26.9323 4.18793 26.6583 4.18793C26.3842 4.18793 26.1129 4.24199 25.8598 4.34702C25.6067 4.45204 25.3768 4.60597 25.1833 4.79998L11.1666 18.8167C11.0121 18.9708 10.8895 19.154 10.8059 19.3556C10.7222 19.5572 10.6792 19.7734 10.6792 19.9917C10.6792 20.2099 10.7222 20.4261 10.8059 20.6277C10.8895 20.8293 11.0121 21.0125 11.1666 21.1667L25.1833 35.1833C25.9999 36 27.3166 36 28.1333 35.1833C28.9499 34.3667 28.9499 33.05 28.1333 32.2333L15.8999 20L28.1499 7.74998C28.9499 6.93332 28.9499 5.61665 28.1333 4.79998Z" fill="black"/>
</svg>
