<svg width="40" height="41" viewBox="0 0 40 41" fill="none" xmlns="http://www.w3.org/2000/svg">
<path d="M4.99998 29.25V35.5H11.25L29.6833 17.05L23.4333 10.8L4.99998 29.25ZM37.6833 31.1L30.6 38.1833L21.9333 29.5167L24.8833 26.5666L26.55 28.2333L30.6667 24.1L33.0333 26.4666L30.6 28.8333L32.3667 30.5L34.7333 28.1666L37.6833 31.1ZM11.0167 18.55L2.31665 9.89998L9.39998 2.81665L12.3333 5.76665L8.21665 9.89998L9.99998 11.6667L14.1 7.53332L16.4666 9.89998L14.1 12.25L15.7666 13.9167L11.0167 18.55ZM34.5166 12.1667C35.1666 11.5167 35.1666 10.5 34.5166 9.81665L30.6167 5.98332C30 5.33332 28.9166 5.33332 28.2666 5.98332L25.2 9.03332L31.45 15.2833L34.5166 12.1667Z" fill="black"/>
</svg>
