<svg width="40" height="41" viewBox="0 0 40 41" fill="none" xmlns="http://www.w3.org/2000/svg">
<mask id="mask0_75_158" style="mask-type:luminance" maskUnits="userSpaceOnUse" x="1" y="1" width="38" height="39">
<path d="M30.5716 13.1425C31.6343 14.6648 32.3534 16.3998 32.6791 18.2275H36.6666V22.7725H32.6791C32.3534 24.6002 31.6343 26.3353 30.5716 27.8575L33.3924 30.6784L30.1783 33.8925L27.3574 31.0717C25.8352 32.1344 24.1001 32.8535 22.2724 33.1792V37.1667H17.7274V33.1792C15.8997 32.8535 14.1647 32.1344 12.6424 31.0717L9.82159 33.8925L6.60742 30.6784L9.42825 27.8575C8.36553 26.3353 7.64643 24.6002 7.32075 22.7725H3.33325V18.2275H7.32075C7.64643 16.3998 8.36553 14.6648 9.42825 13.1425L6.60742 10.3217L9.82159 7.10754L12.6424 9.92837C14.1647 8.86566 15.8997 8.14655 17.7274 7.82087V3.83337H22.2724V7.82087C24.1001 8.14655 25.8352 8.86566 27.3574 9.92837L30.1783 7.10754L33.3924 10.3217L30.5716 13.1425Z" fill="white" stroke="white" stroke-width="4" stroke-linejoin="round"/>
<path d="M19.9999 24.6667C21.105 24.6667 22.1648 24.2277 22.9462 23.4463C23.7276 22.6649 24.1666 21.6051 24.1666 20.5C24.1666 19.395 23.7276 18.3352 22.9462 17.5538C22.1648 16.7724 21.105 16.3334 19.9999 16.3334C18.8948 16.3334 17.835 16.7724 17.0536 17.5538C16.2722 18.3352 15.8333 19.395 15.8333 20.5C15.8333 21.6051 16.2722 22.6649 17.0536 23.4463C17.835 24.2277 18.8948 24.6667 19.9999 24.6667Z" fill="black" stroke="black" stroke-width="4" stroke-linejoin="round"/>
</mask>
<g mask="url(#mask0_75_158)">
<path d="M0 0.5H40V40.5H0V0.5Z" fill="black"/>
</g>
</svg>
